<mxfile host="app.diagrams.net" modified="2025-01-04T05:42:05.047Z" agent="Mozilla/5.0 (Windows NT 10.0; Win64; x64) AppleWebKit/537.36 (KHTML, like Gecko) Chrome/131.0.0.0 Safari/537.36" etag="GHa6mEVJz2i5N8P2p-mF" version="22.1.17" type="device">
  <diagram name="Página-1" id="gcEtcUWODSbGnFgtk2Mz">
    <mxGraphModel dx="1434" dy="778" grid="1" gridSize="10" guides="1" tooltips="1" connect="1" arrows="1" fold="1" page="1" pageScale="1" pageWidth="827" pageHeight="1169" math="0" shadow="0">
      <root>
        <mxCell id="0" />
        <mxCell id="1" parent="0" />
        <mxCell id="DAIivacro-6smYlgL1tb-1" value="&lt;h1&gt;&lt;b&gt;TOP DEPARTAMENTOS&lt;/b&gt;&lt;/h1&gt;" style="rounded=1;whiteSpace=wrap;html=1;" vertex="1" parent="1">
          <mxGeometry x="290" y="100" width="360" height="160" as="geometry" />
        </mxCell>
        <mxCell id="DAIivacro-6smYlgL1tb-2" value="&lt;h1&gt;&lt;b&gt;TOP MODALIDAD&lt;/b&gt;&lt;/h1&gt;" style="rounded=1;whiteSpace=wrap;html=1;" vertex="1" parent="1">
          <mxGeometry x="730" y="100" width="360" height="160" as="geometry" />
        </mxCell>
        <mxCell id="DAIivacro-6smYlgL1tb-3" value="" style="rounded=0;whiteSpace=wrap;html=1;" vertex="1" parent="1">
          <mxGeometry x="30" y="100" width="180" height="640" as="geometry" />
        </mxCell>
        <mxCell id="DAIivacro-6smYlgL1tb-4" value="AÑO" style="rounded=0;whiteSpace=wrap;html=1;" vertex="1" parent="1">
          <mxGeometry x="60" y="140" width="120" height="60" as="geometry" />
        </mxCell>
        <mxCell id="DAIivacro-6smYlgL1tb-5" value="FILTRO&lt;br&gt;MODALIDADES" style="rounded=0;whiteSpace=wrap;html=1;" vertex="1" parent="1">
          <mxGeometry x="60" y="390" width="120" height="320" as="geometry" />
        </mxCell>
        <mxCell id="DAIivacro-6smYlgL1tb-6" value="&lt;h1&gt;&lt;b&gt;FRECUENCIA DE HORA DE ACCIDENTE&lt;/b&gt;&lt;/h1&gt;" style="rounded=1;whiteSpace=wrap;html=1;" vertex="1" parent="1">
          <mxGeometry x="300" y="480" width="800" height="230" as="geometry" />
        </mxCell>
        <mxCell id="DAIivacro-6smYlgL1tb-7" value="&lt;h1&gt;&lt;b&gt;ACCIDENTES DE TRÁNSITO EN EL PERÚ EN EL AÑO 2020 - 2021&lt;/b&gt;&lt;/h1&gt;" style="rounded=1;whiteSpace=wrap;html=1;" vertex="1" parent="1">
          <mxGeometry x="180" y="20" width="930" height="60" as="geometry" />
        </mxCell>
        <mxCell id="DAIivacro-6smYlgL1tb-8" value="MES" style="rounded=0;whiteSpace=wrap;html=1;" vertex="1" parent="1">
          <mxGeometry x="60" y="220" width="120" height="60" as="geometry" />
        </mxCell>
        <mxCell id="DAIivacro-6smYlgL1tb-9" value="&lt;b&gt;TOP DE CÓDIGO VÍA, DESCRIPCIÓN, KILOMETRO&lt;/b&gt;&lt;h1&gt;&lt;/h1&gt;" style="rounded=1;whiteSpace=wrap;html=1;" vertex="1" parent="1">
          <mxGeometry x="300" y="290" width="360" height="160" as="geometry" />
        </mxCell>
        <mxCell id="DAIivacro-6smYlgL1tb-10" value="&lt;b&gt;TOP FALLECIDO&lt;/b&gt;&lt;h1&gt;&lt;/h1&gt;" style="rounded=1;whiteSpace=wrap;html=1;" vertex="1" parent="1">
          <mxGeometry x="740" y="290" width="140" height="160" as="geometry" />
        </mxCell>
        <mxCell id="DAIivacro-6smYlgL1tb-11" value="&lt;b&gt;TOP HERIDOS&lt;/b&gt;&lt;h1&gt;&lt;/h1&gt;" style="rounded=1;whiteSpace=wrap;html=1;" vertex="1" parent="1">
          <mxGeometry x="940" y="290" width="140" height="160" as="geometry" />
        </mxCell>
      </root>
    </mxGraphModel>
  </diagram>
</mxfile>
